<svg width="39" height="39" viewBox="0 0 39 39" fill="none" xmlns="http://www.w3.org/2000/svg">
<path d="M11.1376 9.54649C11.1376 19.2203 18.9657 27.0484 28.6395 27.0484C29.4827 27.0484 30.3101 26.9847 31.1216 26.8734C28.5599 30.8033 24.1367 33.4127 19.093 33.4127C11.1853 33.4127 4.77325 27.0007 4.77325 19.093C4.77325 14.0493 7.38262 9.62605 11.3126 7.0644C11.2012 7.87586 11.1376 8.70322 11.1376 9.54649Z" stroke="white" stroke-width="2" stroke-linecap="round" stroke-linejoin="round"/>
<path d="M24.2163 9.59422L28.2417 6.50752L23.1662 6.36433L21.4796 1.59108L19.7931 6.36433L14.7175 6.50752L18.7429 9.59422L17.2951 14.4629L21.4796 11.5831L25.6641 14.4629L24.2163 9.59422Z" fill="white"/>
<path d="M31.2011 19.4907L33.8105 17.5019L30.5329 17.4223L29.435 14.3197L28.3372 17.4223L25.0595 17.5019L27.6689 19.4907L26.7302 22.6411L29.435 20.7795L32.1399 22.6411L31.2011 19.4907Z" fill="white"/>
</svg>
