<svg width="35" height="35" viewBox="0 0 35 35" fill="none" xmlns="http://www.w3.org/2000/svg">
<path d="M28.4375 4.375H6.5625C5.98234 4.375 5.42594 4.60547 5.0157 5.0157C4.60547 5.42594 4.375 5.98234 4.375 6.5625V28.4375C4.375 29.0177 4.60547 29.5741 5.0157 29.9843C5.42594 30.3945 5.98234 30.625 6.5625 30.625H28.4375C29.0177 30.625 29.5741 30.3945 29.9843 29.9843C30.3945 29.5741 30.625 29.0177 30.625 28.4375V6.5625C30.625 5.98234 30.3945 5.42594 29.9843 5.0157C29.5741 4.60547 29.0177 4.375 28.4375 4.375ZM25.1562 18.5938H18.5938V25.1562C18.5938 25.4463 18.4785 25.7245 18.2734 25.9296C18.0683 26.1348 17.7901 26.25 17.5 26.25C17.2099 26.25 16.9317 26.1348 16.7266 25.9296C16.5215 25.7245 16.4062 25.4463 16.4062 25.1562V18.5938H9.84375C9.55367 18.5938 9.27547 18.4785 9.07035 18.2734C8.86523 18.0683 8.75 17.7901 8.75 17.5C8.75 17.2099 8.86523 16.9317 9.07035 16.7266C9.27547 16.5215 9.55367 16.4062 9.84375 16.4062H16.4062V9.84375C16.4062 9.55367 16.5215 9.27547 16.7266 9.07035C16.9317 8.86523 17.2099 8.75 17.5 8.75C17.7901 8.75 18.0683 8.86523 18.2734 9.07035C18.4785 9.27547 18.5938 9.55367 18.5938 9.84375V16.4062H25.1562C25.4463 16.4062 25.7245 16.5215 25.9296 16.7266C26.1348 16.9317 26.25 17.2099 26.25 17.5C26.25 17.7901 26.1348 18.0683 25.9296 18.2734C25.7245 18.4785 25.4463 18.5938 25.1562 18.5938Z" fill="white"/>
</svg>
